static_grf.mot
version=1
nRows=10
nColumns 19
inDegrees=yes
endheader
time	1_ground_force_vx	1_ground_force_vy	1_ground_force_vz	1_ground_force_px	1_ground_force_py	1_ground_force_pz	1_ground_torque_x	1_ground_torque_y	1_ground_torque_z	2_ground_force_vx	2_ground_force_vy	2_ground_force_vz	2_ground_force_px	2_ground_force_py	2_ground_force_pz	2_ground_torque_x	2_ground_torque_y	2_ground_torque_z
            0.448500	           -1.492802	          392.855889	          -53.707245	           -0.297867	            0.006087	           -0.376302	           -0.011309	            2.976266	           -0.406885	           -2.395335	          514.314619	           56.178806	           -0.289424	            0.005480	           -0.709208	            0.013786	           -2.959972	           -0.323319
            0.449000	           -1.354769	          393.215463	          -53.476764	           -0.297843	            0.006086	           -0.376211	           -0.010288	            2.986169	           -0.406115	           -2.394047	          513.946673	           56.083635	           -0.289509	            0.005480	           -0.709192	            0.013652	           -2.930820	           -0.319821
            0.449500	           -1.308828	          392.674706	          -53.479197	           -0.297832	            0.006087	           -0.376473	           -0.009938	            2.981552	           -0.406064	           -2.440877	          513.946336	           56.130583	           -0.289463	            0.005479	           -0.709045	            0.014117	           -2.972350	           -0.324625
            0.450000	           -1.492346	          392.855102	          -53.523821	           -0.298023	            0.006087	           -0.376377	           -0.011223	            2.954387	           -0.402515	           -2.676414	          514.313437	           56.225853	           -0.289438	            0.005480	           -0.709132	            0.015042	           -2.890568	           -0.316003
            0.450500	           -1.263716	          392.315560	          -53.801844	           -0.297725	            0.006088	           -0.376667	           -0.009699	            3.010938	           -0.412918	           -2.437512	          513.025237	           56.221154	           -0.289567	            0.005478	           -0.708821	            0.014039	           -2.954889	           -0.323819
            0.451000	           -1.446944	          393.396528	          -53.659187	           -0.297773	            0.006086	           -0.376177	           -0.010972	            2.983080	           -0.406891	           -2.536529	          514.498024	           56.226450	           -0.289369	            0.005480	           -0.709287	            0.014552	           -2.951646	           -0.322568
            0.451500	           -1.447219	          393.036587	          -53.798297	           -0.297919	            0.006087	           -0.376256	           -0.011046	            2.999916	           -0.410624	           -2.439465	          513.577263	           56.316981	           -0.289474	            0.005479	           -0.708992	            0.013903	           -2.926960	           -0.320960
            0.452000	           -1.354785	          392.674894	          -53.524935	           -0.297492	            0.006088	           -0.376528	           -0.010372	            3.006330	           -0.409788	           -2.252106	          513.578275	           56.223045	           -0.289361	            0.005480	           -0.709031	            0.012928	           -2.948248	           -0.322754
            0.452500	           -1.309756	          393.397145	          -53.797093	           -0.297881	            0.006087	           -0.376285	           -0.010098	            3.033016	           -0.414765	           -2.392677	          513.577935	           56.176177	           -0.289398	            0.005480	           -0.709212	            0.013739	           -2.949072	           -0.322575
            0.453000	           -1.446779	          392.495169	          -53.663052	           -0.297873	            0.006087	           -0.376360	           -0.010981	            2.979097	           -0.407311	           -2.486980	          513.761296	           56.317658	           -0.289381	            0.005480	           -0.709146	            0.014162	           -2.925588	           -0.320698
